# xmcd
#
# Track frame offsets:
#	150
#	14777
#	27452
#	42544
#	62716
#	75022
#	91629
#	114378
#	130209
#	149584
#	161996
#	174008
#	195450
#	210368
#	226201
#	239798
#	256416
#	267541
#	284727
#	296743
#
# Disc length: 4129 seconds
#
# Revision: 0
# Processed by: cddbd v1.5.2PL0 Copyright (c) Steve Scherf et al.
# Submitted via: audiograbber 1.83.01
#
DISCID=29101f14
DTITLE=TSP Country - TSP Country 020
DYEAR=2006
DGENRE=Country
TTITLE0=The Cowboy Way  - Darrin Allen
TTITLE1=Southsid Of My Heart  - Art Carter
TTITLE2=God Bless The Woman  - K Ryan
TTITLE3=Last One To Know  - Art Carter
TTITLE4=Girl´s That Made Me Blue  - K Ryan
TTITLE5=Until Something Better Comes Along  - Brian Neely
TTITLE6=Light One Candle  - Derek Mccorkell
TTITLE7=The Wind  - Chris Vaughn
TTITLE8=Honky Tonk Kind Of Night  - Derek Mccorkell
TTITLE9=Listen To Your Heart  - Collean Mckillop
TTITLE10=One Way Ticket  - Sherlock B Reid
TTITLE11=Then There Was You - Diane Gillaspy
TTITLE12=Santa Fe  - Lou Derr and Bootleg
TTITLE13=Have You Heard  - Diane Gillaspy
TTITLE14=Heartstorm  - Linda Wright 
TTITLE15=Cowboy Cadillac  - Jim Cach
TTITLE16=Why Does Christmas Seem So Right  - Charlotte Bradford
TTITLE17=As Long As Ther´s A Night  - Darrin Allen
TTITLE18=Santa, Santa Fil My Sock  - Charlotte Bradford
TTITLE19=Sparky The Reindeer  - Savannah Conley
EXTD=
EXTT0=
EXTT1=
EXTT2=
EXTT3=
EXTT4=
EXTT5=
EXTT6=
EXTT7=
EXTT8=
EXTT9=
EXTT10=
EXTT11=
EXTT12=
EXTT13=
EXTT14=
EXTT15=
EXTT16=
EXTT17=
EXTT18=
EXTT19=
PLAYORDER=
